<svg width="22" height="22" viewBox="0 0 22 22" fill="none" xmlns="http://www.w3.org/2000/svg">
<path d="M21.3158 8.50291L12.4695 0.463867C12.1433 0.165481 11.7173 0 11.2752 0C10.8332 0 10.4071 0.165481 10.081 0.463867L1.23473 8.50291C1.05361 8.66861 0.908948 8.87019 0.809955 9.09483C0.710961 9.31947 0.659799 9.56225 0.659721 9.80774V19.992C0.652528 20.4381 0.810004 20.8711 1.10203 21.2084C1.26778 21.3968 1.47195 21.5476 1.70083 21.6506C1.92971 21.7536 2.17799 21.8064 2.42897 21.8055H7.73673C7.97135 21.8055 8.19636 21.7123 8.36226 21.5464C8.52816 21.3805 8.62136 21.1555 8.62136 20.9209V15.6131C8.62136 15.3785 8.71456 15.1535 8.88046 14.9876C9.04636 14.8217 9.27137 14.7285 9.50599 14.7285H13.0445C13.2791 14.7285 13.5041 14.8217 13.67 14.9876C13.8359 15.1535 13.9291 15.3785 13.9291 15.6131V20.9209C13.9291 21.1555 14.0223 21.3805 14.1882 21.5464C14.3541 21.7123 14.5791 21.8055 14.8137 21.8055H20.1215C20.4149 21.8081 20.7042 21.7358 20.9619 21.5954C21.2423 21.4427 21.4765 21.2174 21.6399 20.9431C21.8033 20.6687 21.89 20.3555 21.8908 20.0362V9.80774C21.8907 9.56225 21.8395 9.31947 21.7405 9.09483C21.6415 8.87019 21.4969 8.66861 21.3158 8.50291Z" fill="#4845FF"/>
</svg>
